<?xml version="1.0" encoding="utf-8"?>
<!-- Generator: Adobe Illustrator 21.0.0, SVG Export Plug-In . SVG Version: 6.00 Build 0)  -->
<svg version="1.1" xmlns="http://www.w3.org/2000/svg" xmlns:xlink="http://www.w3.org/1999/xlink" x="0px" y="0px"
	 viewBox="-185 200 470 196.3" style="enable-background:new -185 200 470 196.3;" xml:space="preserve">
<style type="text/css">
	.st0{fill:#4AB0C3;}
	.st1{fill:#FFFFFF;stroke:#4AB0C3;stroke-width:3;}
	.st2{display:none;}
	.st3{display:inline;}
	.st4{display:inline;fill:#4AB0C3;}
	.st5{fill:none;stroke:#42ACBF;stroke-width:2;stroke-miterlimit:10;}
	.st6{fill:#42ACBF;}
</style>
<g id="Layer_1">
	<g>
		<rect x="-185" y="237.5" class="st0" width="470" height="158.8"/>
		<circle class="st1" cx="50.5" cy="242.9" r="41.5"/>
	</g>
</g>
<g id="Layer_2" class="st2">
	<g class="st3">
		<g>
			<path class="st0" d="M74.6,236.6h-6.9l6.6-7.8c1.3,0.6,2.9,0.4,4-0.7c1.4-1.4,1.4-3.6,0-5l-6.7-6.7c-1.4-1.4-3.6-1.4-5,0
				c-1.1,1.1-1.3,2.7-0.7,4l-19.3,16.3H23.4c-2.6,0-4.7,2.1-4.7,4.7c0,2,1.2,3.8,3.1,4.4c0.1,8.8,5.9,16.6,14.2,19.1v2.1
				c0,2,1.6,3.6,3.6,3.6h19c2,0,3.6-1.6,3.6-3.6v-2.1c8.4-2.6,14.2-10.3,14.2-19.1c1.8-0.7,3.1-2.4,3.1-4.4
				C79.4,238.8,77.2,236.6,74.6,236.6z M68.3,218c0.5-0.5,1.2-0.5,1.7,0l6.7,6.7c0.5,0.5,0.5,1.2,0,1.7c-0.5,0.5-1.2,0.5-1.7,0
				c0,0,0,0,0,0s0,0,0,0l-6.7-6.7l0,0C67.8,219.2,67.8,218.5,68.3,218z M67.4,222.1l5.2,5.2l-7.9,9.3H50.2L67.4,222.1z M59.7,267
				c0,0.7-0.5,1.2-1.2,1.2h-19c-0.7,0-1.2-0.5-1.2-1.2v-1.5c1.2,0.2,2.4,0.3,3.6,0.3h14.2c1.2,0,2.4-0.1,3.6-0.3V267z M60.6,262.9
				c-1.4,0.4-2.9,0.6-4.5,0.6H41.9c-1.5,0-3-0.2-4.5-0.6c-7.7-2-13.1-8.8-13.3-16.8h49.8C73.7,254.1,68.3,260.9,60.6,262.9z
				 M75.4,243.6C75.4,243.6,75.4,243.6,75.4,243.6c-0.3,0.1-0.5,0.1-0.8,0.1H23.4c-1.2,0-2.4-1-2.4-2.4c0-1.3,1.1-2.4,2.4-2.4h51.3
				c1.3,0,2.4,1.1,2.4,2.4C77,242.4,76.4,243.3,75.4,243.6z"/>
		</g>
	</g>
	<g class="st3">
		<g>
			<path class="st0" d="M54.9,252.3c-0.4-0.4-0.9-0.6-1.5-0.6h-1.7V250c0-0.6-0.2-1.1-0.6-1.5c-0.4-0.4-0.9-0.6-1.5-0.6h-1.3
				c-0.6,0-1.1,0.2-1.5,0.6s-0.6,0.9-0.6,1.5v1.7h-1.7c-0.6,0-1.1,0.2-1.5,0.6c-0.4,0.4-0.6,0.9-0.6,1.5v1.3c0,0.6,0.2,1.1,0.6,1.5
				c0.4,0.4,0.9,0.6,1.5,0.6h1.7v1.7c0,0.6,0.2,1.1,0.6,1.5s0.9,0.6,1.5,0.6h1.3c0.6,0,1.1-0.2,1.5-0.6s0.6-0.9,0.6-1.5v-1.7h1.7
				c0.6,0,1.1-0.2,1.5-0.6s0.6-0.9,0.6-1.5v-1.3C55.5,253.2,55.3,252.7,54.9,252.3z"/>
		</g>
	</g>
</g>
<g id="Layer_3">
	<g class="st2">
		<path class="st4" d="M50.5,221.4c-9.4,0-17.1,7.7-17.1,17.1c0,15.7,15,25.6,15.6,26c0.5,0.3,1,0.5,1.5,0.5c0.5,0,1.1-0.2,1.5-0.5
			c0.6-0.4,15.6-10.4,15.6-26C67.7,229.1,60,221.4,50.5,221.4z M50.5,262.3C46.3,259,36.3,250,36.3,238c0-7.6,6.4-13.9,14.2-13.9
			c7.8,0,14.2,6.2,14.2,13.9C64.7,250,54.8,259,50.5,262.3z"/>
	</g>
	<path class="st5" d="M59.9,253.9c0,0,1,7.2-5,7.2s-19.8,0-19.8,0s-4.9,0.4-4.9-4.8s0-9.1,0-9.1s0.4-4.6,4.9-4.6s19.6,0,19.6,0
		s5.8-0.3,5.3,6.7l9.6-5.6v16L59.9,253.9z"/>
	<g>
		<path class="st6" d="M37.5,229.9c4.3,0,5.3,3.6,5.3,4.9s-0.7,5.6-5.3,5.6s-5.2-4-5.3-5.3C32.2,233.7,33.3,229.9,37.5,229.9
			 M37.5,227.9c-2.1,0-3.9,0.7-5.2,2.1c-1.5,1.6-2.1,3.8-2,5.2c0.2,3.6,2.5,7.2,7.3,7.2c5.3,0,7.3-4.6,7.3-7.6
			C44.8,232.6,43.1,227.9,37.5,227.9L37.5,227.9z"/>
	</g>
	<g>
		<path class="st6" d="M52.8,224.6c2.2,0,7.8,1.8,7.8,8.1c0,6.2-5.6,7.7-7.7,7.7c-0.1,0-0.1,0-0.2,0c-0.5,0-2.1-0.2-3.7-0.9
			c-2.2-1-4.5-2.9-4.5-6.8C44.7,226,50.7,224.6,52.8,224.6 M52.8,222.6c-3.9,0-10.2,2.7-10.2,10.1c0,3.9,2,7,5.7,8.6
			c2.2,1,4.2,1.1,4.4,1.1c0.1,0,0.2,0,0.3,0c3.2,0,9.7-2.4,9.7-9.7C62.7,225.2,55.9,222.6,52.8,222.6L52.8,222.6z"/>
	</g>
</g>
</svg>
